<svg width="288" height="156" viewBox="0 0 288 156" fill="none" xmlns="http://www.w3.org/2000/svg">
<path d="M95.2031 17.2335C100.55 13.8813 105.521 8.70405 109.929 1.13055C121.675 29.0534 137.078 40.4895 154.056 42.8702C171.151 45.2674 189.71 38.4538 207.455 30.4558C211.561 28.6056 215.607 26.6994 219.585 24.825C224.249 22.6274 228.821 20.4735 233.288 18.5044C241.538 14.8671 249.307 11.9181 256.341 10.6166C263.373 9.31561 269.616 9.67101 274.859 12.5779C280.083 15.4743 284.402 20.9527 287.5 30.0822C287.449 99.2956 223.286 155.5 144 155.5C64.6823 155.5 0.5 99.2511 0.5 30C0.5 21.3312 1.65481 15.4359 3.69183 11.5906C5.70956 7.78186 8.60161 5.96495 12.1959 5.45004C15.8318 4.92917 20.2124 5.73821 25.1639 7.27959C29.5166 8.63459 34.2569 10.5372 39.2588 12.5448C39.9393 12.8179 40.6245 13.0929 41.3143 13.3688C52.7993 17.962 65.5199 22.7812 77.6407 22.4015C83.7154 22.2111 89.6484 20.7158 95.2031 17.2335Z" stroke="white"/>
</svg>
