<svg width="288" height="156" viewBox="0 0 288 156" fill="none" xmlns="http://www.w3.org/2000/svg">
<path d="M95.4687 17.6571C100.692 14.3827 105.541 9.4051 109.856 2.23632C121.598 29.6063 136.969 40.9792 153.986 43.3653C171.24 45.7847 189.92 38.9075 207.661 30.9117C211.79 29.0507 215.836 27.1441 219.811 25.2714C224.463 23.0794 229.017 20.9338 233.489 18.9619C241.732 15.3279 249.457 12.3988 256.432 11.1083C263.402 9.81873 269.513 10.1858 274.617 13.0152C279.683 15.824 283.929 21.1564 287 30.1647C286.898 99.0036 223.043 155 144 155C64.8937 155 1 98.9143 1 30C1 21.361 2.15337 15.5628 4.13366 11.8247C6.07537 8.15942 8.82821 6.4376 12.2668 5.94499C15.7887 5.44046 20.081 6.22098 25.0153 7.757C29.3475 9.1056 34.0674 11 39.0723 13.0087C39.7526 13.2817 40.4381 13.5569 41.1287 13.833C52.5987 18.4203 65.4148 23.2847 77.6563 22.9012C83.8059 22.7086 89.828 21.1934 95.4687 17.6571Z" stroke="black" stroke-width="2"/>
</svg>
